<svg id="canvas" width="1920" height="1080" viewBox="0 0 1920 1080" xmlns="http://www.w3.org/2000/svg" xmlns:xlink="http://www.w3.org/1999/xlink" version="1.1" style="position:relative;" class="canvas-root-65fca" data-reactid="3"><defs data-reactid="4"><style data-reactid="5">#canvas [data-element="bg"] {fill: rgba(90, 135, 150, 1)}#canvas #original-93024 [data-element="el-0"] {fill:rgba(5, 5, 5, 1);stroke:none;}#canvas #original-93024 [data-element="el-1"] {fill:rgba(5, 5, 5, 1);stroke:none;}</style><pattern id="canvas-ptn-image" patternUnits="userSpaceOnUse" x="0" y="0" width="124.99999999999989" height="124.99999999999989" data-reactid="6"><rect x="0" y="0" width="124.99999999999989" height="124.99999999999989" data-element="bg" data-reactid="7"></rect><g><use xlink:href="#transformed-93024" x="-124.99999999999989" y="-124.99999999999989"></use><use xlink:href="#transformed-93024" x="0" y="-124.99999999999989"></use><use xlink:href="#transformed-93024" x="124.99999999999989" y="-124.99999999999989"></use><use xlink:href="#transformed-93024" x="-124.99999999999989" y="0"></use><use xlink:href="#transformed-93024" x="0" y="0"></use><use xlink:href="#transformed-93024" x="124.99999999999989" y="0"></use><use xlink:href="#transformed-93024" x="-124.99999999999989" y="124.99999999999989"></use><use xlink:href="#transformed-93024" x="0" y="124.99999999999989"></use><use xlink:href="#transformed-93024" x="124.99999999999989" y="124.99999999999989"></use></g></pattern><pattern id="canvas-ptn-grid" patternUnits="userSpaceOnUse" x="0" y="0" width="9.999999999999991" height="9.999999999999991" data-reactid="27"><line class="canvas-dottedBack-56d9e" x1="0" y1="8.999999999999991" x2="9.999999999999991" y2="8.999999999999991" data-reactid="28"></line><line class="canvas-dotted-f81e7" x1="0" y1="8.999999999999991" x2="9.999999999999991" y2="8.999999999999991" data-reactid="29"></line><line class="canvas-dottedBack-56d9e" x1="8.999999999999991" y1="0" x2="8.999999999999991" y2="9.999999999999991" data-reactid="30"></line><line class="canvas-dotted-f81e7" x1="8.999999999999991" y1="0" x2="8.999999999999991" y2="9.999999999999991" data-reactid="31"></line></pattern><pattern id="canvas-ptn-bounds" patternUnits="userSpaceOnUse" x="0" y="0" width="124.99999999999989" height="124.99999999999989" data-reactid="32"><line class="canvas-bounds-a46d8" x1="0" y1="123.99999999999989" x2="124.99999999999989" y2="123.99999999999989" data-reactid="33"></line><line class="canvas-bounds-a46d8" x1="123.99999999999989" y1="0" x2="123.99999999999989" y2="124.99999999999989" data-reactid="34"></line></pattern></defs><rect id="canvas-ptn-preview" width="1920" height="1080" fill="url(#canvas-ptn-image)" data-reactid="35"></rect><g id="bgp-canvas-click-group-93024" class="canvas-clickGroup-c3d71" transform="translate(0, 0)"><g id="transformed-93024" data-image="93024" transform="translate(-62.49999999999994, -62.49999999999994) rotate(12, 62.49999999999994, 62.49999999999994)"><g><svg version="1.1" width="124.99999999999989px" height="124.99999999999989px" viewBox="0 0 124.99999999999989 124.99999999999989"><g id="original-93024"><svg xmlns="http://www.w3.org/2000/svg" viewBox="0 0 24 24" xmlns:xlink="http://www.w3.org/1999/xlink" version="1.1" preserveAspectRatio="xMidYMid meet">
  <path d="M10 22c-.25 0-.46-.18-.5-.42l-.37-2.65c-.63-.25-1.17-.59-1.69-.99l-2.49 1.01c-.22.08-.49 0-.61-.22l-2-3.46a.493.493 0 0 1 .12-.64l2.11-1.66L4.5 12l.07-1-2.11-1.63a.493.493 0 0 1-.12-.64l2-3.46c.12-.22.39-.31.61-.22l2.49 1c.52-.39 1.06-.73 1.69-.98l.37-2.65c.04-.24.25-.42.5-.42h4c.25 0 .46.18.5.42l.37 2.65c.63.25 1.17.59 1.69.98l2.49-1c.22-.09.49 0 .61.22l2 3.46c.13.22.07.49-.12.64L19.43 11l.07 1-.07 1 2.11 1.63c.19.15.25.42.12.64l-2 3.46c-.12.22-.39.31-.61.22l-2.49-1c-.52.39-1.06.73-1.69.98l-.37 2.65c-.04.24-.25.42-.5.42h-4m1.25-18l-.37 2.61c-1.2.25-2.26.89-3.03 1.78L5.44 7.35l-.75 1.3L6.8 10.2a5.55 5.55 0 0 0 0 3.6l-2.12 1.56.75 1.3 2.43-1.04c.77.88 1.82 1.52 3.01 1.76l.37 2.62h1.52l.37-2.61c1.19-.25 2.24-.89 3.01-1.77l2.43 1.04.75-1.3-2.12-1.55c.4-1.17.4-2.44 0-3.61l2.11-1.55-.75-1.3-2.41 1.04a5.42 5.42 0 0 0-3.03-1.77L12.75 4h-1.5z" data-element="el-0"></path>
  <path d="M12.726 13.259l-1.638 2.839a4.196 4.196 0 0 0 3.566-.844l-1.537-2.667m-5.124.672a4.216 4.216 0 0 0 2.516 2.663l1.541-2.663M10.546 12L8.909 9.165A4.137 4.137 0 0 0 7.8 12c0 .285.029.566.084.839h3.145m5.086-1.679H12.97l.121.21 1.999 3.464a4.168 4.168 0 0 0 1.025-3.674m-.109-.42a4.206 4.206 0 0 0-2.516-2.663l-1.541 2.663m-1.041.63l2.003-3.469a4.173 4.173 0 0 0-3.566.844l1.537 2.667.026-.042z" data-element="el-1"></path>
</svg>
</g></svg></g></g><g id="transformed-93024" data-image="93024" data-satelite="-1,-1" transform="translate(-187.49999999999983, -187.49999999999983) rotate(12, 62.49999999999994, 62.49999999999994)" class="canvas-satelite-76600"><g><svg version="1.1" width="124.99999999999989px" height="124.99999999999989px" viewBox="0 0 124.99999999999989 124.99999999999989"><g id="original-93024"><svg xmlns="http://www.w3.org/2000/svg" viewBox="0 0 24 24" xmlns:xlink="http://www.w3.org/1999/xlink" version="1.1" preserveAspectRatio="xMidYMid meet">
  <path d="M10 22c-.25 0-.46-.18-.5-.42l-.37-2.65c-.63-.25-1.17-.59-1.69-.99l-2.49 1.01c-.22.08-.49 0-.61-.22l-2-3.46a.493.493 0 0 1 .12-.64l2.11-1.66L4.5 12l.07-1-2.11-1.63a.493.493 0 0 1-.12-.64l2-3.46c.12-.22.39-.31.61-.22l2.49 1c.52-.39 1.06-.73 1.69-.98l.37-2.65c.04-.24.25-.42.5-.42h4c.25 0 .46.18.5.42l.37 2.65c.63.25 1.17.59 1.69.98l2.49-1c.22-.09.49 0 .61.22l2 3.46c.13.22.07.49-.12.64L19.43 11l.07 1-.07 1 2.11 1.63c.19.15.25.42.12.64l-2 3.46c-.12.22-.39.31-.61.22l-2.49-1c-.52.39-1.06.73-1.69.98l-.37 2.65c-.04.24-.25.42-.5.42h-4m1.25-18l-.37 2.61c-1.2.25-2.26.89-3.03 1.78L5.44 7.35l-.75 1.3L6.8 10.2a5.55 5.55 0 0 0 0 3.6l-2.12 1.56.75 1.3 2.43-1.04c.77.88 1.82 1.52 3.01 1.76l.37 2.62h1.52l.37-2.61c1.19-.25 2.24-.89 3.01-1.77l2.43 1.04.75-1.3-2.12-1.55c.4-1.17.4-2.44 0-3.61l2.11-1.55-.75-1.3-2.41 1.04a5.42 5.42 0 0 0-3.03-1.77L12.75 4h-1.5z" data-element="el-0"></path>
  <path d="M12.726 13.259l-1.638 2.839a4.196 4.196 0 0 0 3.566-.844l-1.537-2.667m-5.124.672a4.216 4.216 0 0 0 2.516 2.663l1.541-2.663M10.546 12L8.909 9.165A4.137 4.137 0 0 0 7.8 12c0 .285.029.566.084.839h3.145m5.086-1.679H12.97l.121.21 1.999 3.464a4.168 4.168 0 0 0 1.025-3.674m-.109-.42a4.206 4.206 0 0 0-2.516-2.663l-1.541 2.663m-1.041.63l2.003-3.469a4.173 4.173 0 0 0-3.566.844l1.537 2.667.026-.042z" data-element="el-1"></path>
</svg>
</g></svg></g></g><g id="transformed-93024" data-image="93024" data-satelite="0,-1" transform="translate(-62.49999999999994, -187.49999999999983) rotate(12, 62.49999999999994, 62.49999999999994)" class="canvas-satelite-76600"><g><svg version="1.1" width="124.99999999999989px" height="124.99999999999989px" viewBox="0 0 124.99999999999989 124.99999999999989"><g id="original-93024"><svg xmlns="http://www.w3.org/2000/svg" viewBox="0 0 24 24" xmlns:xlink="http://www.w3.org/1999/xlink" version="1.1" preserveAspectRatio="xMidYMid meet">
  <path d="M10 22c-.25 0-.46-.18-.5-.42l-.37-2.65c-.63-.25-1.17-.59-1.69-.99l-2.49 1.01c-.22.08-.49 0-.61-.22l-2-3.46a.493.493 0 0 1 .12-.64l2.11-1.66L4.5 12l.07-1-2.11-1.63a.493.493 0 0 1-.12-.64l2-3.46c.12-.22.39-.31.61-.22l2.49 1c.52-.39 1.06-.73 1.69-.98l.37-2.65c.04-.24.25-.42.5-.42h4c.25 0 .46.18.5.42l.37 2.65c.63.25 1.17.59 1.69.98l2.49-1c.22-.09.49 0 .61.22l2 3.46c.13.22.07.49-.12.64L19.43 11l.07 1-.07 1 2.11 1.63c.19.15.25.42.12.64l-2 3.46c-.12.22-.39.31-.61.22l-2.49-1c-.52.39-1.06.73-1.69.98l-.37 2.65c-.04.24-.25.42-.5.42h-4m1.25-18l-.37 2.61c-1.2.25-2.26.89-3.03 1.78L5.44 7.35l-.75 1.3L6.8 10.2a5.55 5.55 0 0 0 0 3.6l-2.12 1.56.75 1.3 2.43-1.04c.77.88 1.82 1.52 3.01 1.76l.37 2.62h1.52l.37-2.61c1.19-.25 2.24-.89 3.01-1.77l2.43 1.04.75-1.3-2.12-1.55c.4-1.17.4-2.44 0-3.61l2.11-1.55-.75-1.3-2.41 1.04a5.42 5.42 0 0 0-3.03-1.77L12.75 4h-1.5z" data-element="el-0"></path>
  <path d="M12.726 13.259l-1.638 2.839a4.196 4.196 0 0 0 3.566-.844l-1.537-2.667m-5.124.672a4.216 4.216 0 0 0 2.516 2.663l1.541-2.663M10.546 12L8.909 9.165A4.137 4.137 0 0 0 7.8 12c0 .285.029.566.084.839h3.145m5.086-1.679H12.97l.121.21 1.999 3.464a4.168 4.168 0 0 0 1.025-3.674m-.109-.42a4.206 4.206 0 0 0-2.516-2.663l-1.541 2.663m-1.041.63l2.003-3.469a4.173 4.173 0 0 0-3.566.844l1.537 2.667.026-.042z" data-element="el-1"></path>
</svg>
</g></svg></g></g><g id="transformed-93024" data-image="93024" data-satelite="1,-1" transform="translate(62.49999999999994, -187.49999999999983) rotate(12, 62.49999999999994, 62.49999999999994)" class="canvas-satelite-76600"><g><svg version="1.1" width="124.99999999999989px" height="124.99999999999989px" viewBox="0 0 124.99999999999989 124.99999999999989"><g id="original-93024"><svg xmlns="http://www.w3.org/2000/svg" viewBox="0 0 24 24" xmlns:xlink="http://www.w3.org/1999/xlink" version="1.1" preserveAspectRatio="xMidYMid meet">
  <path d="M10 22c-.25 0-.46-.18-.5-.42l-.37-2.65c-.63-.25-1.17-.59-1.69-.99l-2.49 1.01c-.22.08-.49 0-.61-.22l-2-3.46a.493.493 0 0 1 .12-.64l2.11-1.66L4.5 12l.07-1-2.11-1.63a.493.493 0 0 1-.12-.64l2-3.46c.12-.22.39-.31.61-.22l2.49 1c.52-.39 1.06-.73 1.69-.98l.37-2.65c.04-.24.25-.42.5-.42h4c.25 0 .46.18.5.42l.37 2.65c.63.25 1.17.59 1.69.98l2.49-1c.22-.09.49 0 .61.22l2 3.46c.13.22.07.49-.12.64L19.43 11l.07 1-.07 1 2.11 1.63c.19.15.25.42.12.64l-2 3.46c-.12.22-.39.31-.61.22l-2.49-1c-.52.39-1.06.73-1.69.98l-.37 2.65c-.04.24-.25.42-.5.42h-4m1.25-18l-.37 2.61c-1.2.25-2.26.89-3.03 1.78L5.44 7.35l-.75 1.3L6.8 10.2a5.55 5.55 0 0 0 0 3.6l-2.12 1.56.75 1.3 2.43-1.04c.77.88 1.82 1.52 3.01 1.76l.37 2.62h1.52l.37-2.61c1.19-.25 2.24-.89 3.01-1.77l2.43 1.04.75-1.3-2.12-1.55c.4-1.17.4-2.44 0-3.61l2.11-1.55-.75-1.3-2.41 1.04a5.42 5.42 0 0 0-3.03-1.77L12.75 4h-1.5z" data-element="el-0"></path>
  <path d="M12.726 13.259l-1.638 2.839a4.196 4.196 0 0 0 3.566-.844l-1.537-2.667m-5.124.672a4.216 4.216 0 0 0 2.516 2.663l1.541-2.663M10.546 12L8.909 9.165A4.137 4.137 0 0 0 7.8 12c0 .285.029.566.084.839h3.145m5.086-1.679H12.97l.121.21 1.999 3.464a4.168 4.168 0 0 0 1.025-3.674m-.109-.42a4.206 4.206 0 0 0-2.516-2.663l-1.541 2.663m-1.041.63l2.003-3.469a4.173 4.173 0 0 0-3.566.844l1.537 2.667.026-.042z" data-element="el-1"></path>
</svg>
</g></svg></g></g><g id="transformed-93024" data-image="93024" data-satelite="-1,0" transform="translate(-187.49999999999983, -62.49999999999994) rotate(12, 62.49999999999994, 62.49999999999994)" class="canvas-satelite-76600"><g><svg version="1.1" width="124.99999999999989px" height="124.99999999999989px" viewBox="0 0 124.99999999999989 124.99999999999989"><g id="original-93024"><svg xmlns="http://www.w3.org/2000/svg" viewBox="0 0 24 24" xmlns:xlink="http://www.w3.org/1999/xlink" version="1.1" preserveAspectRatio="xMidYMid meet">
  <path d="M10 22c-.25 0-.46-.18-.5-.42l-.37-2.65c-.63-.25-1.17-.59-1.69-.99l-2.49 1.01c-.22.08-.49 0-.61-.22l-2-3.46a.493.493 0 0 1 .12-.64l2.11-1.66L4.5 12l.07-1-2.11-1.63a.493.493 0 0 1-.12-.64l2-3.46c.12-.22.39-.31.61-.22l2.49 1c.52-.39 1.06-.73 1.69-.98l.37-2.65c.04-.24.25-.42.5-.42h4c.25 0 .46.18.5.42l.37 2.65c.63.25 1.17.59 1.69.98l2.49-1c.22-.09.49 0 .61.22l2 3.46c.13.22.07.49-.12.64L19.43 11l.07 1-.07 1 2.11 1.63c.19.15.25.42.12.64l-2 3.46c-.12.22-.39.31-.61.22l-2.49-1c-.52.39-1.06.73-1.69.98l-.37 2.65c-.04.24-.25.42-.5.42h-4m1.25-18l-.37 2.61c-1.2.25-2.26.89-3.03 1.78L5.44 7.35l-.75 1.3L6.8 10.2a5.55 5.55 0 0 0 0 3.6l-2.12 1.56.75 1.3 2.43-1.04c.77.88 1.82 1.52 3.01 1.76l.37 2.62h1.52l.37-2.61c1.19-.25 2.24-.89 3.01-1.77l2.43 1.04.75-1.3-2.12-1.55c.4-1.17.4-2.44 0-3.61l2.11-1.55-.75-1.3-2.41 1.04a5.42 5.42 0 0 0-3.03-1.77L12.75 4h-1.5z" data-element="el-0"></path>
  <path d="M12.726 13.259l-1.638 2.839a4.196 4.196 0 0 0 3.566-.844l-1.537-2.667m-5.124.672a4.216 4.216 0 0 0 2.516 2.663l1.541-2.663M10.546 12L8.909 9.165A4.137 4.137 0 0 0 7.8 12c0 .285.029.566.084.839h3.145m5.086-1.679H12.97l.121.21 1.999 3.464a4.168 4.168 0 0 0 1.025-3.674m-.109-.42a4.206 4.206 0 0 0-2.516-2.663l-1.541 2.663m-1.041.63l2.003-3.469a4.173 4.173 0 0 0-3.566.844l1.537 2.667.026-.042z" data-element="el-1"></path>
</svg>
</g></svg></g></g><g id="transformed-93024" data-image="93024" data-satelite="1,0" transform="translate(62.49999999999994, -62.49999999999994) rotate(12, 62.49999999999994, 62.49999999999994)" class="canvas-satelite-76600"><g><svg version="1.1" width="124.99999999999989px" height="124.99999999999989px" viewBox="0 0 124.99999999999989 124.99999999999989"><g id="original-93024"><svg xmlns="http://www.w3.org/2000/svg" viewBox="0 0 24 24" xmlns:xlink="http://www.w3.org/1999/xlink" version="1.1" preserveAspectRatio="xMidYMid meet">
  <path d="M10 22c-.25 0-.46-.18-.5-.42l-.37-2.65c-.63-.25-1.17-.59-1.69-.99l-2.49 1.01c-.22.08-.49 0-.61-.22l-2-3.46a.493.493 0 0 1 .12-.64l2.11-1.66L4.5 12l.07-1-2.11-1.63a.493.493 0 0 1-.12-.64l2-3.46c.12-.22.39-.31.61-.22l2.49 1c.52-.39 1.06-.73 1.69-.98l.37-2.65c.04-.24.25-.42.5-.42h4c.25 0 .46.18.5.42l.37 2.65c.63.25 1.17.59 1.69.98l2.49-1c.22-.09.49 0 .61.22l2 3.46c.13.22.07.49-.12.64L19.43 11l.07 1-.07 1 2.11 1.63c.19.15.25.42.12.64l-2 3.46c-.12.22-.39.31-.61.22l-2.49-1c-.52.39-1.06.73-1.69.98l-.37 2.65c-.04.24-.25.42-.5.42h-4m1.25-18l-.37 2.61c-1.2.25-2.26.89-3.03 1.78L5.44 7.35l-.75 1.3L6.8 10.2a5.55 5.55 0 0 0 0 3.6l-2.12 1.56.75 1.3 2.43-1.04c.77.88 1.82 1.52 3.01 1.76l.37 2.62h1.52l.37-2.61c1.19-.25 2.24-.89 3.01-1.77l2.43 1.04.75-1.3-2.12-1.55c.4-1.17.4-2.44 0-3.61l2.11-1.55-.75-1.3-2.41 1.04a5.42 5.42 0 0 0-3.03-1.77L12.75 4h-1.5z" data-element="el-0"></path>
  <path d="M12.726 13.259l-1.638 2.839a4.196 4.196 0 0 0 3.566-.844l-1.537-2.667m-5.124.672a4.216 4.216 0 0 0 2.516 2.663l1.541-2.663M10.546 12L8.909 9.165A4.137 4.137 0 0 0 7.8 12c0 .285.029.566.084.839h3.145m5.086-1.679H12.97l.121.21 1.999 3.464a4.168 4.168 0 0 0 1.025-3.674m-.109-.42a4.206 4.206 0 0 0-2.516-2.663l-1.541 2.663m-1.041.63l2.003-3.469a4.173 4.173 0 0 0-3.566.844l1.537 2.667.026-.042z" data-element="el-1"></path>
</svg>
</g></svg></g></g><g id="transformed-93024" data-image="93024" data-satelite="-1,1" transform="translate(-187.49999999999983, 62.49999999999994) rotate(12, 62.49999999999994, 62.49999999999994)" class="canvas-satelite-76600"><g><svg version="1.1" width="124.99999999999989px" height="124.99999999999989px" viewBox="0 0 124.99999999999989 124.99999999999989"><g id="original-93024"><svg xmlns="http://www.w3.org/2000/svg" viewBox="0 0 24 24" xmlns:xlink="http://www.w3.org/1999/xlink" version="1.1" preserveAspectRatio="xMidYMid meet">
  <path d="M10 22c-.25 0-.46-.18-.5-.42l-.37-2.65c-.63-.25-1.17-.59-1.69-.99l-2.49 1.01c-.22.08-.49 0-.61-.22l-2-3.46a.493.493 0 0 1 .12-.64l2.11-1.66L4.5 12l.07-1-2.11-1.63a.493.493 0 0 1-.12-.64l2-3.46c.12-.22.39-.31.61-.22l2.49 1c.52-.39 1.06-.73 1.69-.98l.37-2.65c.04-.24.25-.42.5-.42h4c.25 0 .46.18.5.42l.37 2.65c.63.25 1.17.59 1.69.98l2.49-1c.22-.09.49 0 .61.22l2 3.46c.13.22.07.49-.12.64L19.43 11l.07 1-.07 1 2.11 1.63c.19.15.25.42.12.64l-2 3.46c-.12.22-.39.31-.61.22l-2.49-1c-.52.39-1.06.73-1.69.98l-.37 2.65c-.04.24-.25.42-.5.42h-4m1.25-18l-.37 2.61c-1.2.25-2.26.89-3.03 1.78L5.44 7.35l-.75 1.3L6.8 10.2a5.55 5.55 0 0 0 0 3.6l-2.12 1.56.75 1.3 2.43-1.04c.77.88 1.82 1.52 3.01 1.76l.37 2.62h1.52l.37-2.61c1.19-.25 2.24-.89 3.01-1.77l2.43 1.04.75-1.3-2.12-1.55c.4-1.17.4-2.44 0-3.61l2.11-1.55-.75-1.3-2.41 1.04a5.42 5.42 0 0 0-3.03-1.77L12.75 4h-1.5z" data-element="el-0"></path>
  <path d="M12.726 13.259l-1.638 2.839a4.196 4.196 0 0 0 3.566-.844l-1.537-2.667m-5.124.672a4.216 4.216 0 0 0 2.516 2.663l1.541-2.663M10.546 12L8.909 9.165A4.137 4.137 0 0 0 7.8 12c0 .285.029.566.084.839h3.145m5.086-1.679H12.97l.121.21 1.999 3.464a4.168 4.168 0 0 0 1.025-3.674m-.109-.42a4.206 4.206 0 0 0-2.516-2.663l-1.541 2.663m-1.041.63l2.003-3.469a4.173 4.173 0 0 0-3.566.844l1.537 2.667.026-.042z" data-element="el-1"></path>
</svg>
</g></svg></g></g><g id="transformed-93024" data-image="93024" data-satelite="0,1" transform="translate(-62.49999999999994, 62.49999999999994) rotate(12, 62.49999999999994, 62.49999999999994)" class="canvas-satelite-76600"><g><svg version="1.1" width="124.99999999999989px" height="124.99999999999989px" viewBox="0 0 124.99999999999989 124.99999999999989"><g id="original-93024"><svg xmlns="http://www.w3.org/2000/svg" viewBox="0 0 24 24" xmlns:xlink="http://www.w3.org/1999/xlink" version="1.1" preserveAspectRatio="xMidYMid meet">
  <path d="M10 22c-.25 0-.46-.18-.5-.42l-.37-2.65c-.63-.25-1.17-.59-1.69-.99l-2.49 1.01c-.22.08-.49 0-.61-.22l-2-3.46a.493.493 0 0 1 .12-.64l2.11-1.66L4.5 12l.07-1-2.11-1.63a.493.493 0 0 1-.12-.64l2-3.46c.12-.22.39-.31.61-.22l2.49 1c.52-.39 1.06-.73 1.69-.98l.37-2.65c.04-.24.25-.42.5-.42h4c.25 0 .46.18.5.42l.37 2.65c.63.25 1.17.59 1.69.98l2.49-1c.22-.09.49 0 .61.22l2 3.46c.13.22.07.49-.12.64L19.43 11l.07 1-.07 1 2.11 1.63c.19.15.25.42.12.64l-2 3.46c-.12.22-.39.31-.61.22l-2.49-1c-.52.39-1.06.73-1.69.98l-.37 2.65c-.04.24-.25.42-.5.42h-4m1.25-18l-.37 2.61c-1.2.25-2.26.89-3.03 1.78L5.44 7.35l-.75 1.3L6.8 10.2a5.55 5.55 0 0 0 0 3.6l-2.12 1.56.75 1.3 2.43-1.04c.77.88 1.82 1.52 3.01 1.76l.37 2.62h1.52l.37-2.61c1.19-.25 2.24-.89 3.01-1.77l2.43 1.04.75-1.3-2.12-1.55c.4-1.17.4-2.44 0-3.61l2.11-1.55-.75-1.3-2.41 1.04a5.42 5.42 0 0 0-3.03-1.77L12.75 4h-1.5z" data-element="el-0"></path>
  <path d="M12.726 13.259l-1.638 2.839a4.196 4.196 0 0 0 3.566-.844l-1.537-2.667m-5.124.672a4.216 4.216 0 0 0 2.516 2.663l1.541-2.663M10.546 12L8.909 9.165A4.137 4.137 0 0 0 7.8 12c0 .285.029.566.084.839h3.145m5.086-1.679H12.97l.121.21 1.999 3.464a4.168 4.168 0 0 0 1.025-3.674m-.109-.42a4.206 4.206 0 0 0-2.516-2.663l-1.541 2.663m-1.041.63l2.003-3.469a4.173 4.173 0 0 0-3.566.844l1.537 2.667.026-.042z" data-element="el-1"></path>
</svg>
</g></svg></g></g><g id="transformed-93024" data-image="93024" data-satelite="1,1" transform="translate(62.49999999999994, 62.49999999999994) rotate(12, 62.49999999999994, 62.49999999999994)" class="canvas-satelite-76600"><g><svg version="1.1" width="124.99999999999989px" height="124.99999999999989px" viewBox="0 0 124.99999999999989 124.99999999999989"><g id="original-93024"><svg xmlns="http://www.w3.org/2000/svg" viewBox="0 0 24 24" xmlns:xlink="http://www.w3.org/1999/xlink" version="1.1" preserveAspectRatio="xMidYMid meet">
  <path d="M10 22c-.25 0-.46-.18-.5-.42l-.37-2.65c-.63-.25-1.17-.59-1.69-.99l-2.49 1.01c-.22.08-.49 0-.61-.22l-2-3.46a.493.493 0 0 1 .12-.64l2.11-1.66L4.5 12l.07-1-2.11-1.63a.493.493 0 0 1-.12-.64l2-3.46c.12-.22.39-.31.61-.22l2.49 1c.52-.39 1.06-.73 1.69-.98l.37-2.65c.04-.24.25-.42.5-.42h4c.25 0 .46.18.5.42l.37 2.65c.63.25 1.17.59 1.69.98l2.49-1c.22-.09.49 0 .61.22l2 3.46c.13.22.07.49-.12.64L19.43 11l.07 1-.07 1 2.11 1.63c.19.15.25.42.12.64l-2 3.46c-.12.22-.39.31-.61.22l-2.49-1c-.52.39-1.06.73-1.69.98l-.37 2.65c-.04.24-.25.42-.5.42h-4m1.25-18l-.37 2.61c-1.2.25-2.26.89-3.03 1.78L5.44 7.35l-.75 1.3L6.8 10.2a5.55 5.55 0 0 0 0 3.6l-2.12 1.56.75 1.3 2.43-1.04c.77.88 1.82 1.52 3.01 1.76l.37 2.62h1.52l.37-2.61c1.19-.25 2.24-.89 3.01-1.77l2.43 1.04.75-1.3-2.12-1.55c.4-1.17.4-2.44 0-3.61l2.11-1.55-.75-1.3-2.41 1.04a5.42 5.42 0 0 0-3.03-1.77L12.75 4h-1.5z" data-element="el-0"></path>
  <path d="M12.726 13.259l-1.638 2.839a4.196 4.196 0 0 0 3.566-.844l-1.537-2.667m-5.124.672a4.216 4.216 0 0 0 2.516 2.663l1.541-2.663M10.546 12L8.909 9.165A4.137 4.137 0 0 0 7.8 12c0 .285.029.566.084.839h3.145m5.086-1.679H12.97l.121.21 1.999 3.464a4.168 4.168 0 0 0 1.025-3.674m-.109-.42a4.206 4.206 0 0 0-2.516-2.663l-1.541 2.663m-1.041.63l2.003-3.469a4.173 4.173 0 0 0-3.566.844l1.537 2.667.026-.042z" data-element="el-1"></path>
</svg>
</g></svg></g></g></g><rect width="1920" height="1080" fill="url(#canvas-ptn-debugging)" class="canvas-clickTrough-abb12" data-reactid="110"></rect></svg>
